<?xml version="1.0" encoding="UTF-8" standalone="no"?>
<svg
   xmlns:dc="http://purl.org/dc/elements/1.1/"
   xmlns:cc="http://creativecommons.org/ns#"
   xmlns:rdf="http://www.w3.org/1999/02/22-rdf-syntax-ns#"
   xmlns:svg="http://www.w3.org/2000/svg"
   xmlns="http://www.w3.org/2000/svg"
   xmlns:sodipodi="http://sodipodi.sourceforge.net/DTD/sodipodi-0.dtd"
   xmlns:inkscape="http://www.inkscape.org/namespaces/inkscape"
   role="img"
   viewBox="0 0 20 20"
   version="1.1"
   id="svg6"
   sodipodi:docname="academia.svg"
   width="20"
   height="20"
   inkscape:version="1.0.2 (e86c870879, 2021-01-15)">
  <metadata
     id="metadata12">
    <rdf:RDF>
      <cc:Work
         rdf:about="">
        <dc:format>image/svg+xml</dc:format>
        <dc:type
           rdf:resource="http://purl.org/dc/dcmitype/StillImage" />
        <dc:title>Academia icon</dc:title>
      </cc:Work>
    </rdf:RDF>
  </metadata>
  <defs
     id="defs10" />
  <sodipodi:namedview
     pagecolor="#ffffff"
     bordercolor="#666666"
     borderopacity="1"
     objecttolerance="10"
     gridtolerance="10"
     guidetolerance="10"
     inkscape:pageopacity="0"
     inkscape:pageshadow="2"
     inkscape:window-width="1366"
     inkscape:window-height="715"
     id="namedview8"
     showgrid="false"
     inkscape:zoom="13.670731"
     inkscape:cx="12.12987"
     inkscape:cy="11.985232"
     inkscape:window-x="1358"
     inkscape:window-y="-8"
     inkscape:window-maximized="1"
     inkscape:current-layer="svg6"
     inkscape:document-rotation="0" />
  <title
     id="title2">Academia icon</title>
  <circle
     style="fill:#000000;stroke:#000000;stroke-width:0.377953;fill-opacity:1;stroke-opacity:1"
     id="path837"
     cx="10.188976"
     cy="10.188976"
     r="10" />
  <path
     d="M 15.565982,13.454797 11.237532,2.5919475 H 8.1463825 L 8.6958857,3.9670381 4.9860864,13.454797 c -0.1372448,0.481255 -0.549503,0.550455 -0.961761,0.619131 v 0.618606 h 3.5725542 v -0.618606 c -0.961761,-0.06868 -1.5117875,-0.206552 -1.0995295,-1.237739 0.068622,-0.06868 0.3436356,-0.825159 0.6867476,-1.78767 h 4.3965473 l 0.618126,1.581119 c 0.06863,0.275227 0.137243,0.481254 0.137243,0.687283 0,0.549931 -0.48088,0.756483 -1.374018,0.756483 v 0.618607 h 5.634369 v -0.618607 c -0.480881,-0.06816 -0.89314,-0.206028 -1.030383,-0.618607 z M 7.5968796,9.8799804 A 190.31081,190.45923 0 0 0 9.3145344,5.4108046 l 1.7862766,4.4691758 z"
     id="path4"
     style="fill:#ffffff;stroke-width:0.524038" />
</svg>
