<?xml version="1.0" encoding="UTF-8" standalone="no"?>
<svg
   xmlns:dc="http://purl.org/dc/elements/1.1/"
   xmlns:cc="http://creativecommons.org/ns#"
   xmlns:rdf="http://www.w3.org/1999/02/22-rdf-syntax-ns#"
   xmlns:svg="http://www.w3.org/2000/svg"
   xmlns="http://www.w3.org/2000/svg"
   xmlns:sodipodi="http://sodipodi.sourceforge.net/DTD/sodipodi-0.dtd"
   xmlns:inkscape="http://www.inkscape.org/namespaces/inkscape"
   role="img"
   viewBox="0 0 20 20"
   version="1.1"
   id="svg6"
   sodipodi:docname="codepen.svg"
   width="20"
   height="20"
   inkscape:version="1.0.2 (e86c870879, 2021-01-15)">
  <metadata
     id="metadata12">
    <rdf:RDF>
      <cc:Work
         rdf:about="">
        <dc:format>image/svg+xml</dc:format>
        <dc:type
           rdf:resource="http://purl.org/dc/dcmitype/StillImage" />
        <dc:title>CodePen icon</dc:title>
      </cc:Work>
    </rdf:RDF>
  </metadata>
  <defs
     id="defs10" />
  <sodipodi:namedview
     pagecolor="#ffffff"
     bordercolor="#666666"
     borderopacity="1"
     objecttolerance="10"
     gridtolerance="10"
     guidetolerance="10"
     inkscape:pageopacity="0"
     inkscape:pageshadow="2"
     inkscape:window-width="1366"
     inkscape:window-height="715"
     id="namedview8"
     showgrid="false"
     inkscape:zoom="13.670731"
     inkscape:cx="19.874142"
     inkscape:cy="14.368174"
     inkscape:window-x="-8"
     inkscape:window-y="-8"
     inkscape:window-maximized="1"
     inkscape:current-layer="svg6" />
  <title
     id="title2">CodePen icon</title>
  <path
     d="M 15.120001,10.889167 V 9.1108335 L 13.791667,10 Z m 1.063333,0.995 a 0.52333334,0.52333334 0 0 1 -0.005,0.06917 l -0.0042,0.02334 -0.0092,0.04417 -0.0083,0.02583 c -0.0042,0.01333 -0.0083,0.02583 -0.01416,0.03916 l -0.01167,0.025 a 0.65000002,0.65000002 0 0 1 -0.0175,0.03584 l -0.01583,0.025 a 0.47500001,0.47500001 0 0 1 -0.06667,0.08333 l -0.02167,0.02083 a 0.50166668,0.50166668 0 0 1 -0.03,0.025 l -0.02417,0.01833 -0.0083,0.0067 -5.651668,3.768334 a 0.53083335,0.53083335 0 0 1 -0.5899995,0 l -5.6516672,-3.769166 -0.00833,-0.0067 a 0.49916667,0.49916667 0 0 1 -0.054166,-0.04333 l -0.021667,-0.02083 -0.026667,-0.02834 -0.0175,-0.02334 a 0.49000001,0.49000001 0 0 1 -0.055833,-0.09167 l -0.011667,-0.02583 a 0.53666668,0.53666668 0 0 1 -0.014167,-0.03916 l -0.00833,-0.025 c -0.00334,-0.015 -0.00667,-0.03 -0.00833,-0.045 l -0.005,-0.02334 a 0.52333334,0.52333334 0 0 1 -0.005,-0.06916 V 8.1158429 c 0,-0.023338 0.00166,-0.045833 0.005,-0.069167 l 0.00417,-0.0225 0.00916,-0.045 0.00833,-0.025 a 0.47833334,0.47833334 0 0 1 0.099978,-0.1808424 l 0.025834,-0.028334 0.021667,-0.020834 a 0.51666668,0.51666668 0 0 1 0.054166,-0.043333 l 0.00833,-0.00667 5.6516932,-3.7675001 a 0.53166668,0.53166668 0 0 1 0.5900005,0 l 5.651667,3.7675001 0.0083,0.00667 0.025,0.018334 0.02917,0.025 c 0.0083,0.00667 0.01416,0.013333 0.02166,0.020834 a 0.45416667,0.45416667 0 0 1 0.06667,0.083333 l 0.01584,0.025 a 0.52750001,0.52750001 0 0 1 0.0175,0.035834 l 0.01167,0.025 c 0.0058,0.013333 0.01,0.026667 0.01416,0.039167 l 0.0083,0.025834 c 0.0033,0.015 0.0067,0.03 0.0083,0.045 l 0.005,0.0225 a 0.51583334,0.51583334 0 0 1 0.005,0.069167 z M 10.000001,0 C 4.4775001,0 0,4.4766668 0,10.000001 0,15.522501 4.4775001,20 10.000001,20 15.523334,20 20,15.523334 20,10.000001 20,4.4775001 15.523334,0 10.000001,0 m 0,8.7433335 -1.8791676,1.2566675 1.8791676,1.258333 1.879167,-1.258333 z m 0.531666,3.4366675 v 2.479166 L 14.695,11.884168 12.835001,10.64 Z m -5.2266669,-0.296667 4.1633334,2.775 V 12.180001 L 7.1650001,10.639167 Z M 14.695,8.1166667 10.531667,5.3416668 v 2.4783334 l 2.303334,1.5416663 z M 9.4683335,7.8200002 V 5.3416668 l -4.1633334,2.7749999 1.86,1.2441668 z M 4.8800001,9.1108335 V 10.889167 L 6.2083335,10 Z"
     id="path4"
     style="stroke-width:0.833333" />
</svg>
