<?xml version="1.0" encoding="UTF-8" standalone="no"?>
<svg
   xmlns:dc="http://purl.org/dc/elements/1.1/"
   xmlns:cc="http://creativecommons.org/ns#"
   xmlns:rdf="http://www.w3.org/1999/02/22-rdf-syntax-ns#"
   xmlns:svg="http://www.w3.org/2000/svg"
   xmlns="http://www.w3.org/2000/svg"
   xmlns:sodipodi="http://sodipodi.sourceforge.net/DTD/sodipodi-0.dtd"
   xmlns:inkscape="http://www.inkscape.org/namespaces/inkscape"
   role="img"
   viewBox="0 0 20.000002 19.45569"
   version="1.1"
   id="svg6"
   sodipodi:docname="GitHub.svg"
   width="20.000002"
   height="19.45569"
   inkscape:version="1.0.2 (e86c870879, 2021-01-15)">
  <metadata
     id="metadata12">
    <rdf:RDF>
      <cc:Work
         rdf:about="">
        <dc:format>image/svg+xml</dc:format>
        <dc:type
           rdf:resource="http://purl.org/dc/dcmitype/StillImage" />
        <dc:title>GitHub icon</dc:title>
      </cc:Work>
    </rdf:RDF>
  </metadata>
  <defs
     id="defs10" />
  <sodipodi:namedview
     pagecolor="#ffffff"
     bordercolor="#666666"
     borderopacity="1"
     objecttolerance="10"
     gridtolerance="10"
     guidetolerance="10"
     inkscape:pageopacity="0"
     inkscape:pageshadow="2"
     inkscape:window-width="1366"
     inkscape:window-height="715"
     id="namedview8"
     showgrid="false"
     fit-margin-top="0"
     fit-margin-left="0"
     fit-margin-right="0"
     fit-margin-bottom="0"
     inkscape:zoom="13.670731"
     inkscape:cx="6.4769407"
     inkscape:cy="13.612368"
     inkscape:window-x="-8"
     inkscape:window-y="-8"
     inkscape:window-maximized="1"
     inkscape:current-layer="svg6" />
  <title
     id="title2">GitHub icon</title>
  <path
     d="M 9.9999993,0 C 4.4749998,0 0,4.4662312 0,9.9748326 c 0,4.4080444 2.8649998,8.1461134 6.8374998,9.4636224 0.4999999,0.09393 0.6833332,-0.214459 0.6833332,-0.479623 0,-0.236903 -0.00833,-0.864486 -0.012499,-1.695722 -2.7816666,0.601815 -3.3683332,-1.33829 -3.3683332,-1.33829 -0.455,-1.151262 -1.1125,-1.458819 -1.1125,-1.458819 -0.9058333,-0.61844 0.07,-0.605971 0.07,-0.605971 1.0041666,0.06982 1.5316666,1.027408 1.5316666,1.027408 0.8916667,1.525318 2.3408332,1.084763 2.9124999,0.829573 0.09,-0.645039 0.3474999,-1.084763 0.633333,-1.334134 -2.2208329,-0.24937 -4.5549995,-1.107206 -4.5549995,-4.9292294 0,-1.088919 0.3874999,-1.978342 1.0291666,-2.6765803 -0.1125,-0.2518645 -0.45,-1.2659725 0.0875,-2.6400056 0,0 0.8375,-0.267658 2.7499999,1.0224203 0.8,-0.22194 1.65,-0.3316632 2.5,-0.3366506 0.8499997,0.00499 1.6999997,0.1147106 2.4999997,0.3366506 1.899999,-1.2900783 2.7375,-1.0224203 2.7375,-1.0224203 0.5375,1.3740331 0.2,2.3881411 0.100002,2.6400056 0.6375,0.6982383 1.025,1.5876613 1.025,2.6765803 0,3.8319984 -2.3375,4.6757024 -4.5625,4.9209174 0.35,0.299245 0.675,0.911035 0.675,1.845344 0,1.334965 -0.0125,2.40726 -0.0125,2.731442 0,0.261839 0.175,0.573552 0.6875,0.473804 4.000834,-1.308365 6.863333,-5.048928 6.863333,-9.4503224 C 20.000002,4.4662312 15.522502,0 10.000002,0"
     id="path4"
     style="stroke-width:0.832284" />
</svg>
