<?xml version="1.0" encoding="UTF-8" standalone="no"?>
<svg
   xmlns:dc="http://purl.org/dc/elements/1.1/"
   xmlns:cc="http://creativecommons.org/ns#"
   xmlns:rdf="http://www.w3.org/1999/02/22-rdf-syntax-ns#"
   xmlns:svg="http://www.w3.org/2000/svg"
   xmlns="http://www.w3.org/2000/svg"
   xmlns:sodipodi="http://sodipodi.sourceforge.net/DTD/sodipodi-0.dtd"
   xmlns:inkscape="http://www.inkscape.org/namespaces/inkscape"
   role="img"
   viewBox="0 0 20.377953 20.377952"
   version="1.1"
   id="svg6"
   sodipodi:docname="hackerrank.svg"
   inkscape:version="1.0.2 (e86c870879, 2021-01-15)"
   width="20.377953"
   height="20.377953">
  <metadata
     id="metadata12">
    <rdf:RDF>
      <cc:Work
         rdf:about="">
        <dc:format>image/svg+xml</dc:format>
        <dc:type
           rdf:resource="http://purl.org/dc/dcmitype/StillImage" />
        <dc:title>HackerRank icon</dc:title>
      </cc:Work>
    </rdf:RDF>
  </metadata>
  <defs
     id="defs10" />
  <sodipodi:namedview
     pagecolor="#ffffff"
     bordercolor="#666666"
     borderopacity="1"
     objecttolerance="10"
     gridtolerance="10"
     guidetolerance="10"
     inkscape:pageopacity="0"
     inkscape:pageshadow="2"
     inkscape:window-width="1366"
     inkscape:window-height="715"
     id="namedview8"
     showgrid="false"
     inkscape:zoom="2.5201798"
     inkscape:cx="63.795228"
     inkscape:cy="32.933736"
     inkscape:window-x="1358"
     inkscape:window-y="-8"
     inkscape:window-maximized="1"
     inkscape:current-layer="svg6"
     inkscape:document-rotation="0"
     fit-margin-top="0"
     fit-margin-left="0"
     fit-margin-right="0"
     fit-margin-bottom="0" />
  <title
     id="title2">HackerRank icon</title>
  <path
     id="path884"
     style="fill:#000000;fill-opacity:1;stroke:none;stroke-width:0.377953"
     d="m 20,10.000001 a 10,10 0 0 1 -10,10 10,10 0 0 1 -10,-10 A 10,10 0 0 1 10,0 10,10 0 0 1 20,10.000001 Z" />
  <path
     id="path886"
     style="fill:#ffffff;fill-opacity:1;stroke:none;stroke-width:0.368825;stroke-miterlimit:4;stroke-dasharray:none;stroke-opacity:0"
     d="M 9.8375103,0.09920367 A 9.7569959,9.7569929 0 0 0 0.09919927,9.8560444 9.7569959,9.7569929 0 0 0 9.8560403,19.612886 9.7569959,9.7569929 0 0 0 19.612881,9.8560444 9.7569959,9.7569929 0 0 0 9.8560403,0.09920367 a 9.7569959,9.7569929 0 0 0 -0.01853,0 z m 0.07823,1.52148203 c 0.8646137,0 6.5598497,3.3765957 6.9918187,4.1465037 0.433989,0.7706 0.433989,7.5244646 0,8.2950646 -0.433987,0.770598 -6.12586,4.146503 -6.9918187,4.146503 -0.865957,0 -6.55989,-3.375905 -6.993878,-4.146503 -0.431296,-0.7706 -0.431296,-7.5244646 0,-8.2950646 0.433995,-0.769908 6.129269,-4.1465037 6.993878,-4.1465037 z m -2.019722,3.3250267 c -0.05654,0 -0.108379,0.03333 -0.14,0.07618 l -1.132355,1.043832 c -0.04845,0.0311 -0.07823,0.08672 -0.07823,0.150294 0,0.09884 0.07535,0.17912 0.170884,0.17912 h 0.473533 l 0.0041,6.9341706 c 0,0.10022 0.07466,0.17912 0.170884,0.17912 h 1.004714 c 0.09553,0 0.175,-0.0796 0.175,-0.177059 v -2.76708 h 2.7403157 v 2.867963 h -0.469415 c -0.09622,0 -0.172942,0.08028 -0.172942,0.179118 0,0.06358 0.03045,0.119195 0.07823,0.150296 l 1.064419,1.04589 c 0.0296,0.04217 0.09377,0.07411 0.150295,0.07411 0.05718,0 0.109091,-0.02991 0.14206,-0.07411 l 1.128246,-1.04589 c 0.04843,-0.0311 0.08029,-0.08672 0.08029,-0.150296 0,-0.09884 -0.07669,-0.179118 -0.170883,-0.179118 H 12.64163 l -0.0041,-6.9341716 c 0,-0.100219 -0.07808,-0.179119 -0.172944,-0.179119 h -1.004712 v 0.0021 c -0.09486,0 -0.175002,0.07822 -0.175002,0.17706 v 2.67855 H 8.5445553 v -2.781538 h 0.471474 c 0.09488,0 0.170884,-0.07822 0.170884,-0.177059 0,-0.06497 -0.0305,-0.121255 -0.08029,-0.152355 l -1.060302,-1.043817 c -0.03296,-0.04354 -0.09311,-0.07618 -0.150297,-0.07618 z" />
  <path
     id="path888"
     style="fill:#000000;fill-opacity:1;stroke:none;stroke-width:0.377953"
     d="M 9.982421,4.3989061e-6 A 10,10 0 0 0 0,10.000005 a 10,10 0 0 0 10,10 10,10 0 0 0 10,-10 A 10,10 0 0 0 10,4.3989061e-6 a 10,10 0 0 0 -0.01758,0 z M 10.000001,4.2070356 a 5.7913313,5.7913313 0 0 1 5.792968,5.7929694 5.7913313,5.7913313 0 0 1 -5.792968,5.791015 5.7913313,5.7913313 0 0 1 -5.791016,-5.791015 5.7913313,5.7913313 0 0 1 5.791016,-5.7929694 z" />
</svg>
