<?xml version="1.0" encoding="UTF-8" standalone="no"?>
<svg
   xmlns:dc="http://purl.org/dc/elements/1.1/"
   xmlns:cc="http://creativecommons.org/ns#"
   xmlns:rdf="http://www.w3.org/1999/02/22-rdf-syntax-ns#"
   xmlns:svg="http://www.w3.org/2000/svg"
   xmlns="http://www.w3.org/2000/svg"
   xmlns:sodipodi="http://sodipodi.sourceforge.net/DTD/sodipodi-0.dtd"
   xmlns:inkscape="http://www.inkscape.org/namespaces/inkscape"
   role="img"
   viewBox="0 0 20 20"
   version="1.1"
   id="svg6"
   sodipodi:docname="kaggle.svg"
   inkscape:version="1.0.2 (e86c870879, 2021-01-15)"
   width="20"
   height="20">
  <metadata
     id="metadata12">
    <rdf:RDF>
      <cc:Work
         rdf:about="">
        <dc:format>image/svg+xml</dc:format>
        <dc:type
           rdf:resource="http://purl.org/dc/dcmitype/StillImage" />
        <dc:title>Kaggle icon</dc:title>
      </cc:Work>
    </rdf:RDF>
  </metadata>
  <defs
     id="defs10" />
  <sodipodi:namedview
     pagecolor="#ffffff"
     bordercolor="#666666"
     borderopacity="1"
     objecttolerance="10"
     gridtolerance="10"
     guidetolerance="10"
     inkscape:pageopacity="0"
     inkscape:pageshadow="2"
     inkscape:window-width="1366"
     inkscape:window-height="715"
     id="namedview8"
     showgrid="false"
     inkscape:zoom="20.161438"
     inkscape:cx="13.095288"
     inkscape:cy="10.953646"
     inkscape:window-x="1358"
     inkscape:window-y="-8"
     inkscape:window-maximized="1"
     inkscape:current-layer="svg6"
     inkscape:document-rotation="0"
     fit-margin-top="0"
     fit-margin-left="0"
     fit-margin-right="0"
     fit-margin-bottom="0" />
  <title
     id="title2">Kaggle icon</title>
  <circle
     style="fill:#000000;stroke:#000000;stroke-width:0.389157;fill-opacity:1;stroke-opacity:1"
     id="path831"
     cx="10"
     cy="10"
     r="9.8054218" />
  <path
     d="m 13.870209,16.412764 c -0.01171,0.04898 -0.06229,0.07505 -0.149584,0.07505 h -1.670969 c -0.09954,0 -0.186846,-0.04366 -0.261904,-0.132016 L 9.0313723,12.848315 8.2605651,13.57973 v 2.720716 c 0,0.125096 -0.062282,0.187378 -0.1868461,0.187378 H 6.7796361 c -0.1256288,0 -0.1884432,-0.06229 -0.1884432,-0.187378 V 3.8999262 c 0,-0.1240319 0.062814,-0.187911 0.1884432,-0.187911 H 8.073719 c 0.124564,0 0.1868461,0.063879 0.1868461,0.187911 V 11.535067 L 11.562577,8.1963244 c 0.08783,-0.087834 0.175669,-0.1309521 0.263503,-0.1309521 h 1.724202 c 0.07666,0 0.125628,0.03194 0.151713,0.095819 0.02448,0.079317 0.01809,0.1357427 -0.01916,0.1676825 l -3.489395,3.3770702 3.638978,4.528492 c 0.05057,0.05537 0.06229,0.110724 0.03726,0.190573"
     id="path4"
     style="fill:#f9f9f9;fill-opacity:1;stroke-width:0.532326" />
</svg>
