<?xml version="1.0" encoding="UTF-8" standalone="no"?>
<svg
   xmlns:dc="http://purl.org/dc/elements/1.1/"
   xmlns:cc="http://creativecommons.org/ns#"
   xmlns:rdf="http://www.w3.org/1999/02/22-rdf-syntax-ns#"
   xmlns:svg="http://www.w3.org/2000/svg"
   xmlns="http://www.w3.org/2000/svg"
   xmlns:sodipodi="http://sodipodi.sourceforge.net/DTD/sodipodi-0.dtd"
   xmlns:inkscape="http://www.inkscape.org/namespaces/inkscape"
   width="20.000002"
   height="20.000002"
   viewBox="0 0 5.2916671 5.2916671"
   version="1.1"
   id="svg8"
   inkscape:version="1.0.2 (e86c870879, 2021-01-15)"
   sodipodi:docname="reddit.svg">
  <defs
     id="defs2" />
  <sodipodi:namedview
     id="base"
     pagecolor="#ffffff"
     bordercolor="#666666"
     borderopacity="1.0"
     inkscape:pageopacity="0.0"
     inkscape:pageshadow="2"
     inkscape:zoom="27.463142"
     inkscape:cx="10.226857"
     inkscape:cy="16.115848"
     inkscape:document-units="px"
     inkscape:current-layer="layer1"
     inkscape:document-rotation="0"
     showgrid="true"
     inkscape:window-width="1366"
     inkscape:window-height="715"
     inkscape:window-x="1358"
     inkscape:window-y="-8"
     inkscape:window-maximized="1"
     fit-margin-top="0"
     fit-margin-left="0"
     fit-margin-right="0"
     fit-margin-bottom="0"
     units="px">
    <inkscape:grid
       type="xygrid"
       id="grid831"
       empspacing="1"
       originx="-1.5039821e-14"
       originy="4.5119463e-14" />
  </sodipodi:namedview>
  <metadata
     id="metadata5">
    <rdf:RDF>
      <cc:Work
         rdf:about="">
        <dc:format>image/svg+xml</dc:format>
        <dc:type
           rdf:resource="http://purl.org/dc/dcmitype/StillImage" />
        <dc:title />
      </cc:Work>
    </rdf:RDF>
  </metadata>
  <g
     inkscape:label="Layer 1"
     inkscape:groupmode="layer"
     id="layer1"
     transform="translate(-90.366233,-92.949494)">
    <path
       d="m 93.505514,96.333515 c 0.01874,0.01853 0.01874,0.04873 0,0.06747 -0.102528,0.101858 -0.26326,0.151475 -0.491906,0.151475 l -0.0017,-4.42e-4 -0.0017,4.42e-4 c -0.228424,0 -0.389379,-0.04961 -0.491904,-0.151695 -0.01874,-0.01851 -0.01874,-0.04873 0,-0.06724 0.01853,-0.01851 0.04896,-0.01851 0.0677,0 0.08357,0.08313 0.22225,0.123685 0.424214,0.123685 l 0.0017,4.4e-4 0.0017,-4.4e-4 c 0.201746,0 0.34043,-0.04056 0.424215,-0.123685 0.01874,-0.01851 0.04917,-0.01851 0.0677,0 z m -0.758473,-0.533137 c 0,-0.111786 -0.09128,-0.202626 -0.203287,-0.202626 -0.112228,0 -0.203508,0.09084 -0.203508,0.202626 0,0.111557 0.09129,0.202407 0.203508,0.202407 0.112014,2.2e-4 0.203287,-0.09063 0.203287,-0.202407 z M 95.6579,95.595327 c 0,1.461161 -1.184673,2.645834 -2.645834,2.645834 -1.461162,0 -2.645833,-1.184673 -2.645833,-2.645834 0,-1.461162 1.184671,-2.645833 2.645833,-2.645833 1.461161,0 2.645834,1.184671 2.645834,2.645833 z m -1.102433,-0.02843 c 0,-0.187633 -0.153236,-0.34021 -0.341753,-0.34021 -0.09194,0 -0.175287,0.03683 -0.2368,0.0959 -0.232834,-0.153237 -0.547908,-0.250691 -0.896497,-0.26326 l 0.19072,-0.600604 0.516598,0.121043 -6.61e-4,0.0076 c 0,0.153459 0.125457,0.278254 0.279577,0.278254 0.15412,0 0.279356,-0.1248 0.279356,-0.278254 0,-0.153457 -0.125243,-0.278253 -0.279356,-0.278253 -0.1184,0 -0.219164,0.07387 -0.259954,0.177272 L 93.24997,94.3558 c -0.02424,-0.0059 -0.04916,0.0081 -0.05667,0.03197 l -0.212768,0.669837 c -0.365124,0.0044 -0.695634,0.102743 -0.93883,0.260393 -0.06107,-0.05623 -0.142,-0.0915 -0.231511,-0.0915 -0.188295,2.2e-4 -0.341532,0.152797 -0.341532,0.340431 0,0.1248 0.06857,0.232833 0.169333,0.292143 -0.0066,0.03616 -0.011,0.07299 -0.011,0.110243 0,0.502928 0.618463,0.91215 1.378698,0.91215 0.760236,0 1.3787,-0.409222 1.3787,-0.91215 0,-0.03527 -0.0037,-0.0699 -0.0097,-0.104071 0.107157,-0.05756 0.180799,-0.168893 0.180799,-0.29832 z m -1.074207,0.0311 c -0.112229,0 -0.203289,0.09084 -0.203289,0.202627 0,0.111557 0.09129,0.202406 0.203289,0.202406 0.112014,0 0.203287,-0.09084 0.203287,-0.202406 0,-0.111786 -0.09106,-0.202627 -0.203287,-0.202627 z"
       id="path833"
       style="fill:#000000;fill-opacity:1;stroke-width:0.220487" />
  </g>
</svg>
