<?xml version="1.0" encoding="UTF-8" standalone="no"?>
<svg
   xmlns:dc="http://purl.org/dc/elements/1.1/"
   xmlns:cc="http://creativecommons.org/ns#"
   xmlns:rdf="http://www.w3.org/1999/02/22-rdf-syntax-ns#"
   xmlns:svg="http://www.w3.org/2000/svg"
   xmlns="http://www.w3.org/2000/svg"
   xmlns:sodipodi="http://sodipodi.sourceforge.net/DTD/sodipodi-0.dtd"
   xmlns:inkscape="http://www.inkscape.org/namespaces/inkscape"
   role="img"
   viewBox="0 0 24 24"
   version="1.1"
   id="svg6"
   sodipodi:docname="topcoder.svg"
   inkscape:version="1.0.2 (e86c870879, 2021-01-15)">
  <metadata
     id="metadata12">
    <rdf:RDF>
      <cc:Work
         rdf:about="">
        <dc:format>image/svg+xml</dc:format>
        <dc:type
           rdf:resource="http://purl.org/dc/dcmitype/StillImage" />
      </cc:Work>
    </rdf:RDF>
  </metadata>
  <defs
     id="defs10" />
  <sodipodi:namedview
     pagecolor="#ffffff"
     bordercolor="#666666"
     borderopacity="1"
     objecttolerance="10"
     gridtolerance="10"
     guidetolerance="10"
     inkscape:pageopacity="0"
     inkscape:pageshadow="2"
     inkscape:window-width="1366"
     inkscape:window-height="715"
     id="namedview8"
     showgrid="false"
     inkscape:zoom="27.341462"
     inkscape:cx="13.254347"
     inkscape:cy="9.9530433"
     inkscape:window-x="1358"
     inkscape:window-y="-8"
     inkscape:window-maximized="1"
     inkscape:current-layer="svg6"
     inkscape:document-rotation="0" />
  <title
     id="title2">Topcoder icon</title>
  <circle
     style="fill:#000000;fill-opacity:1;stroke:#000000;stroke-width:0.148757;stroke-miterlimit:4;stroke-dasharray:none"
     id="path910"
     cx="10.000001"
     cy="10.000001"
     r="9.925622" />
  <path
     id="path879"
     style="fill:#ffffff;fill-opacity:1;stroke-width:0.642165"
     d="m 10.001498,5.8412132 c -1.1784215,0 -2.4446075,0.6410426 -3.5026644,1.752847 1.0971275,0.2512847 2.2605502,0.6525977 3.1799706,1.0877651 l 0.3226938,0.1499844 c 0.128555,-0.058895 0.232204,-0.1061404 0.324208,-0.1499844 0.922571,-0.4364761 2.090296,-0.8388559 3.190576,-1.090795 -1.036632,-1.17528 -2.21096,-1.7498171 -3.514784,-1.7498171 z m -5.6751644,1.780117 a 5.5732343,5.7874001 0 0 0 -0.2484589,0.00757 C 3.217691,7.6734014 2.6540064,7.943088 2.4901619,8.4515464 2.2822054,9.094809 2.6879785,10.145188 3.565807,11.298218 3.7283912,11.510895 3.913089,11.625413 4.1172645,11.658787 4.2117902,10.698146 5.0632072,8.8744685 5.9246513,7.7894944 A 9.3750577,9.7353175 0 0 0 4.4838928,7.6243601 5.5732343,5.7874001 0 0 0 4.3263336,7.6213302 Z m 11.2836684,0.00151 a 5.5266017,5.7389755 0 0 0 -0.09241,0.00151 c -0.425365,0.01047 -0.907123,0.065013 -1.437728,0.1651343 0.383145,0.5130398 0.792556,1.3101551 1.21351,2.2936995 a 27.449629,28.50445 0 0 1 0.619632,1.571048 c 0.192201,-0.03927 0.36525,-0.153163 0.519643,-0.356024 0.877828,-1.152376 1.285116,-2.203409 1.07716,-2.8466715 -0.16385,-0.507797 -0.727279,-0.7781331 -1.586203,-0.8226314 a 5.5266017,5.7389755 0 0 0 -0.313604,-0.00606 z m -1.867986,0.231794 C 12.995893,7.9835533 11.454761,8.4892629 10.4969,8.9257392 l -0.02272,0.01212 a 6.4403499,6.6878368 0 0 1 1.133216,0.3908683 c 0.799057,0.359913 0.947657,0.4545404 3.257234,2.0028205 0.129816,0.08769 0.232912,0.148211 0.369659,0.209069 0.115112,0.05175 0.22733,0.08646 0.336329,0.107565 L 14.985825,10.136218 A 26.919024,27.953456 0 0 0 14.761606,9.631726 C 14.471727,9.0035143 14.191141,8.4811275 13.92836,8.101583 13.865343,8.0099681 13.801883,7.927931 13.742016,7.8546391 Z M 6.2640098,7.856154 C 5.4134613,8.8627665 4.5252218,10.722406 4.4187481,11.652727 4.6462399,11.612809 4.9176456,11.495143 5.1898796,11.331548 5.3896439,11.210485 5.5988575,11.073187 5.8534466,10.899775 6.0065782,10.795073 6.5798148,10.396789 6.5382235,10.425582 7.7601249,9.5814232 8.5884041,9.1305267 9.4864,8.9302842 8.4850561,8.4787571 7.0933144,8.0020824 6.2640098,7.856154 Z" />
</svg>
