<?xml version="1.0" encoding="UTF-8" standalone="no"?>
<svg
   xmlns:dc="http://purl.org/dc/elements/1.1/"
   xmlns:cc="http://creativecommons.org/ns#"
   xmlns:rdf="http://www.w3.org/1999/02/22-rdf-syntax-ns#"
   xmlns:svg="http://www.w3.org/2000/svg"
   xmlns="http://www.w3.org/2000/svg"
   xmlns:sodipodi="http://sodipodi.sourceforge.net/DTD/sodipodi-0.dtd"
   xmlns:inkscape="http://www.inkscape.org/namespaces/inkscape"
   role="img"
   viewBox="0 0 20.377953 20.377953"
   version="1.1"
   id="svg6"
   sodipodi:docname="Twitter.svg"
   inkscape:version="1.0.2 (e86c870879, 2021-01-15)"
   width="20.377953"
   height="20.377953">
  <metadata
     id="metadata12">
    <rdf:RDF>
      <cc:Work
         rdf:about="">
        <dc:format>image/svg+xml</dc:format>
        <dc:type
           rdf:resource="http://purl.org/dc/dcmitype/StillImage" />
        <dc:title>Twitter icon</dc:title>
      </cc:Work>
    </rdf:RDF>
  </metadata>
  <defs
     id="defs10" />
  <sodipodi:namedview
     pagecolor="#ffffff"
     bordercolor="#666666"
     borderopacity="1"
     objecttolerance="10"
     gridtolerance="10"
     guidetolerance="10"
     inkscape:pageopacity="0"
     inkscape:pageshadow="2"
     inkscape:window-width="1366"
     inkscape:window-height="715"
     id="namedview8"
     showgrid="false"
     inkscape:zoom="14.25629"
     inkscape:cx="12.931336"
     inkscape:cy="12.286569"
     inkscape:window-x="1358"
     inkscape:window-y="-8"
     inkscape:window-maximized="1"
     inkscape:current-layer="svg6"
     inkscape:document-rotation="0"
     fit-margin-top="0"
     fit-margin-left="0"
     fit-margin-right="0"
     fit-margin-bottom="0" />
  <title
     id="title2">Twitter icon</title>
  <circle
     style="fill:#000000;stroke:#000000;stroke-width:0.377953;fill-opacity:1;stroke-opacity:1"
     id="path831"
     cx="10.188976"
     cy="10.188976"
     r="10" />
  <path
     d="m 17.608701,6.5828218 a 5.9472231,5.9452584 0 0 1 -1.68009,0.4607575 2.9486332,2.9476591 0 0 0 1.286384,-1.6188939 c -0.565582,0.3299619 -1.192419,0.5701504 -1.859698,0.7039187 a 2.9260338,2.9250673 0 0 0 -4.98615,2.6646647 C 7.9367312,8.6785254 5.7820523,7.5102821 4.3386613,5.7457293 A 2.8677511,2.8668037 0 0 0 3.9425762,7.2171808 c 0,1.0166393 0.5174083,1.9102116 1.3012524,2.4351783 A 2.9165182,2.9155547 0 0 1 3.9187874,9.2861308 v 0.035672 a 2.927818,2.9268507 0 0 0 2.3467742,2.8697742 2.9712327,2.9702511 0 0 1 -1.3155258,0.05053 2.9355494,2.9345796 0 0 0 2.7381015,2.031495 5.8681251,5.8661865 0 0 1 -3.6289956,1.251477 c -0.2319415,0 -0.4632886,-0.01367 -0.6958251,-0.03983 a 8.323139,8.3203893 0 0 0 4.4943165,1.313307 c 5.3840209,0 8.3249229,-4.456565 8.3249229,-8.3144423 0,-0.1248505 0,-0.2497009 -0.0089,-0.3745514 a 5.9085661,5.9066143 0 0 0 1.463047,-1.5148468 z"
     id="path4"
     style="fill:#ffffff;fill-opacity:1;stroke-width:0.594625" />
</svg>
